<svg xmlns="http://www.w3.org/2000/svg" viewBox="0 0 800 800"><defs><style>.a{fill:#fff;opacity:0.2;}</style></defs><title>アートボード 1</title><rect class="a" x="602.1" y="74.5" width="93.6" height="93.59" transform="translate(275.8 -423.3) rotate(45)"/><rect class="a" x="582.7" y="135.6" width="51.9" height="51.94" transform="translate(292.5 -383.1) rotate(45)"/><rect class="a" x="550.9" y="388.7" width="67.6" height="67.61" transform="translate(470.1 -289.7) rotate(45)"/><rect class="a" x="237.7" y="257.2" width="67.6" height="67.61" transform="translate(285.3 -106.7) rotate(45)"/><rect class="a" x="128.9" y="537.2" width="67.6" height="67.61" transform="translate(451.4 52.2) rotate(45)"/><rect class="a" x="427.2" y="265" width="51.9" height="51.94" transform="translate(338.5 -235.2) rotate(45)"/><rect class="a" x="35" y="197" width="51.9" height="51.94" transform="translate(175.5 22.2) rotate(45)"/><rect class="a" x="245.5" y="30" width="51.9" height="51.94" transform="translate(119.1 -175.6) rotate(45)"/><rect class="a" x="297.9" y="22.2" width="67.6" height="67.61" transform="translate(136.8 -218.2) rotate(45)"/><rect class="a" x="716" y="545" width="51.9" height="51.94" transform="translate(621.1 -357.4) rotate(45)"/><rect class="a" x="417" y="455.3" width="51.9" height="51.94" transform="translate(470 -172.3) rotate(45)"/><rect class="a" x="332.9" y="648.7" width="67.6" height="67.61" transform="translate(590.1 -59.4) rotate(45)"/><rect class="a" x="277.8" y="309.1" width="30.5" height="30.46" transform="translate(315.2 -112.2) rotate(45)"/><rect class="a" x="694.8" y="309.1" width="30.5" height="30.46" transform="translate(437.3 -407) rotate(45)"/><rect class="a" x="36.8" y="400.8" width="30.5" height="30.46" transform="translate(309.4 85.1) rotate(45)"/><rect class="a" x="594.3" y="673.8" width="30.5" height="30.46" transform="translate(665.7 -229.2) rotate(45)"/><rect class="a" x="117.5" y="93.5" width="30.5" height="30.46" transform="translate(115.8 -62) rotate(45)"/></svg>